<svg width="9" height="8" viewBox="0 0 9 8" fill="none" xmlns="http://www.w3.org/2000/svg">
<path d="M8.19632 8.00009C8.39863 8.00009 8.57392 7.93329 8.72294 7.80139L6.1731 5.25145C6.11192 5.29526 6.05263 5.33786 5.99661 5.37836C5.80579 5.51895 5.65092 5.62866 5.532 5.70727C5.41309 5.78606 5.25489 5.86637 5.0574 5.94837C4.85979 6.03046 4.67569 6.07138 4.5049 6.07138H4.4999H4.4949C4.3241 6.07138 4.13999 6.03048 3.94239 5.94837C3.74479 5.86637 3.58659 5.78606 3.4678 5.70727C3.34889 5.62866 3.1941 5.51897 3.00319 5.37836C2.94998 5.33936 2.89098 5.29656 2.82719 5.25076L0.276855 7.80139C0.42586 7.93329 0.60127 8.00009 0.80356 8.00009H8.19632Z" fill="#5C6168"/>
<path d="M0.507309 3.64568C0.316506 3.51847 0.147305 3.37278 0 3.20868V7.08821L2.24742 4.84079C1.79781 4.52689 1.21851 4.12898 0.507309 3.64568Z" fill="#5C6168"/>
<path d="M8.49787 3.64568C7.81379 4.10869 7.23238 4.50729 6.75357 4.84168L9.00009 7.0883V3.20868C8.85606 3.36948 8.68867 3.51507 8.49787 3.64568Z" fill="#5C6168"/>
<path d="M8.19645 0.928467H0.803703C0.545792 0.928467 0.347506 1.01556 0.2086 1.18956C0.0695791 1.36365 0.000183105 1.58136 0.000183105 1.84246C0.000183105 2.05336 0.0922754 2.28188 0.276378 2.52807C0.460481 2.77417 0.656382 2.96747 0.863982 3.10808C0.97779 3.18849 1.321 3.42708 1.8936 3.82379C2.2027 4.03799 2.47151 4.22469 2.70251 4.3858C2.89941 4.52299 3.06921 4.6418 3.20941 4.7404C3.22551 4.75169 3.25082 4.76979 3.28441 4.79381C3.3206 4.81981 3.36641 4.8528 3.42291 4.8936C3.53172 4.97229 3.62211 5.0359 3.6941 5.0845C3.766 5.13311 3.85311 5.18741 3.9553 5.2477C4.05741 5.30792 4.15372 5.3532 4.24411 5.38331C4.33452 5.41341 4.41821 5.42851 4.49521 5.42851H4.50021H4.50521C4.58218 5.42851 4.66589 5.41341 4.75632 5.38331C4.8467 5.3532 4.94292 5.30802 5.04511 5.2477C5.14721 5.18741 5.2342 5.133 5.30632 5.0845C5.37832 5.0359 5.46871 4.97231 5.57754 4.8936C5.63393 4.8528 5.67973 4.81979 5.71592 4.79389C5.74953 4.76978 5.77483 4.75178 5.79102 4.7404C5.90024 4.6644 6.07043 4.54608 6.29926 4.38719C6.71563 4.09789 7.32884 3.67209 8.14146 3.10808C8.38586 2.93737 8.59005 2.73137 8.75415 2.49038C8.91796 2.24938 9.00008 1.99658 9.00008 1.73207C9.00008 1.51107 8.92046 1.32197 8.76155 1.16447C8.60247 1.00716 8.41408 0.928467 8.19645 0.928467Z" fill="#5C6168"/>
</svg>
