<svg width="8" height="11" viewBox="0 0 8 11" fill="none" xmlns="http://www.w3.org/2000/svg">
<path d="M3.75758 0C1.68564 0 0 1.78712 0 3.98377C0 6.70988 3.36266 10.712 3.50583 10.881C3.64031 11.0398 3.87509 11.0395 4.00932 10.881C4.15249 10.712 7.51515 6.70988 7.51515 3.98377C7.51511 1.78712 5.82949 0 3.75758 0ZM3.75758 5.98811C2.71513 5.98811 1.86706 5.08897 1.86706 3.98377C1.86706 2.87857 2.71515 1.97944 3.75758 1.97944C4.8 1.97944 5.64807 2.87859 5.64807 3.98379C5.64807 5.08899 4.8 5.98811 3.75758 5.98811Z" fill="#5C6168"/>
</svg>
