<svg width="9" height="10" viewBox="0 0 9 10" fill="none" xmlns="http://www.w3.org/2000/svg">
<path d="M9 5.42847C9 6.62194 8.52589 7.76653 7.68198 8.61045C6.83807 9.45436 5.69347 9.92847 4.5 9.92847C3.30653 9.92847 2.16193 9.45436 1.31802 8.61045C0.474106 7.76653 0 6.62194 0 5.42847C0 4.23499 0.474106 3.0904 1.31802 2.24649C2.16193 1.40257 3.30653 0.928467 4.5 0.928467C5.69347 0.928467 6.83807 1.40257 7.68198 2.24649C8.52589 3.0904 9 4.23499 9 5.42847ZM4.66144 4.25059C4.22344 4.43284 3.34856 4.80972 2.03681 5.38122C1.82419 5.46559 1.71263 5.54847 1.70213 5.62984C1.68525 5.76653 1.85681 5.82053 2.09025 5.89422L2.18869 5.92515C2.41819 5.99997 2.72756 6.08715 2.88787 6.09053C3.03412 6.09428 3.19687 6.03428 3.37612 5.91053C4.602 5.08328 5.23463 4.66515 5.274 4.65615C5.30213 4.6494 5.3415 4.64153 5.36737 4.66515C5.39325 4.68878 5.391 4.73265 5.38819 4.74447C5.37131 4.81703 4.698 5.44253 4.34981 5.76653C4.24125 5.86778 4.16419 5.93922 4.14844 5.95553C4.11377 5.99098 4.07851 6.02586 4.04269 6.06015C3.82894 6.26603 3.66919 6.42015 4.05113 6.67215C4.23506 6.79365 4.38244 6.89322 4.52925 6.99334C4.689 7.10247 4.84875 7.21103 5.05575 7.34715C5.10825 7.38165 5.15887 7.41672 5.20763 7.45234C5.39381 7.58509 5.562 7.70434 5.76844 7.68522C5.88881 7.67397 6.01312 7.56147 6.07613 7.22397C6.22519 6.4269 6.51825 4.70059 6.58575 3.98903C6.58999 3.92988 6.58754 3.87044 6.57844 3.81184C6.57298 3.7646 6.55012 3.72108 6.51431 3.68978C6.46306 3.65459 6.4021 3.6363 6.33994 3.63747C6.17119 3.64028 5.91075 3.73084 4.66144 4.25059Z" fill="#5C6168"/>
</svg>
